<?xml version="1.0" encoding="utf-8"?>
<!-- Generator: Adobe Illustrator 17.0.1, SVG Export Plug-In . SVG Version: 6.00 Build 0)  -->
<!DOCTYPE svg PUBLIC "-//W3C//DTD SVG 1.1//EN" "http://www.w3.org/Graphics/SVG/1.1/DTD/svg11.dtd">
<svg version="1.1" id="Layer_1" xmlns="http://www.w3.org/2000/svg" xmlns:xlink="http://www.w3.org/1999/xlink" x="0px" y="0px"
	 width="450px" height="450px" viewBox="0 0 450 450" enable-background="new 0 0 450 450" xml:space="preserve">
<g>
	<rect fill="none" stroke="#000000" stroke-miterlimit="10" width="450" height="450"/>
</g>
<!-- block a -->
<polygon class="colorA" fill="#ffffff" stroke="#000000" stroke-miterlimit="10" points="0,0 150,0 0,150 "/>
<polygon class="colorB" fill="#E5E5e5" stroke="#000000" stroke-miterlimit="10" points="0,150 150,0 150,150 "/>
<!-- block b -->
<rect class="colorA" x="150" y="0" fill="#ffffff" stroke="#000000" stroke-miterlimit="10" width="150" height="75"/>
<rect class="colorC" x="150" y="75" fill="#c9c9c9" stroke="#000000" stroke-miterlimit="10" width="150" height="75"/>
<!-- block c -->
<polygon class="colorB" fill="#E5E5e5" stroke="#000000" stroke-miterlimit="10" points="300,0 300,150 450,150 "/>
<polygon class="colorA" fill="#ffffff" stroke="#000000" stroke-miterlimit="10" points="300,0 450,0 450,150 "/>
<!-- block d -->
<rect class="colorA" x="0" y="150" fill="#ffffff" stroke="#000000" stroke-miterlimit="10" width="75" height="150"/>
<rect class="colorC" x="75" y="150" fill="#c9c9c9" stroke="#000000" stroke-miterlimit="10" width="75" height="150"/>
<!-- block e centre square-->
<rect class="colorA" x="150" y="150" fill="#ffffff" stroke="#000000" stroke-miterlimit="10" width="150" height="150"/>
<!-- block f -->
<rect class="colorC" x="300" y="150" fill="#c9c9c9" stroke="#000000" stroke-miterlimit="10" width="75" height="150"/>
<rect class="colorA" x="375" y="150" fill="#ffffff" stroke="#000000" stroke-miterlimit="10" width="75" height="150"/>
<!-- block g -->
<polygon class="colorB" fill="#E5E5e5" stroke="#000000" stroke-miterlimit="10" points="0,300 150,300 150,450 "/>
<polygon class="colorA" fill="#ffffff" stroke="#000000" stroke-miterlimit="10" points="0,300 0,450 150,450 "/>
<!-- block h -->
<rect class="colorC" x="150" y="300" fill="#c9c9c9" stroke="#000000" stroke-miterlimit="10" width="150" height="75"/>
<rect class="colorA" x="150" y="375" fill="#ffffff" stroke="#000000" stroke-miterlimit="10" width="150" height="75"/>
<!-- block i -->
<polygon class="colorB" fill="#e5e5e5" stroke="#000000" stroke-miterlimit="10" points="300,300 450,300 300,450 "/>
<polygon class="colorA" fill="#ffffff" stroke="#000000" stroke-miterlimit="10" points="300,450 450,450 450,300 "/>


</svg>