<?xml version="1.0" encoding="utf-8"?>
<!-- Generator: Adobe Illustrator 16.0.4, SVG Export Plug-In . SVG Version: 6.00 Build 0)  -->
<!DOCTYPE svg PUBLIC "-//W3C//DTD SVG 1.1//EN" "http://www.w3.org/Graphics/SVG/1.1/DTD/svg11.dtd">
<svg version="1.1" id="Capa_1" xmlns="http://www.w3.org/2000/svg" xmlns:xlink="http://www.w3.org/1999/xlink" x="0px" y="0px"
	 width="64px" height="64px" viewBox="0 0 64 64" enable-background="new 0 0 64 64" xml:space="preserve">
<path d="M57.189,31.424c1.936,0,3.51-1.573,3.51-3.51c0-1.935-1.574-3.51-3.51-3.51c-1.937,0-3.51,1.575-3.51,3.51
	c0,0.806,0.282,1.54,0.74,2.135l-6.693,7.456c-1.908-1.842-4.103-3.354-6.506-4.467l6.635-16.228
	c1.904-0.034,3.444-1.59,3.444-3.502c0-1.938-1.573-3.511-3.51-3.511s-3.511,1.573-3.511,3.511c0,1.312,0.734,2.445,1.805,3.047
	l-6.539,15.988c-2.158-0.802-4.453-1.298-6.826-1.444l-0.305-6.991c1.73-0.217,3.079-1.68,3.079-3.466
	c0-1.937-1.574-3.51-3.511-3.51c-1.936,0-3.51,1.573-3.51,3.51c0,1.448,0.883,2.693,2.138,3.229l0.262,7.186
	c-2.315,0.032-4.57,0.393-6.709,1.055l-3.872-15.413c1.216-0.551,2.067-1.771,2.067-3.19c0-1.938-1.575-3.511-3.511-3.511
	s-3.51,1.573-3.51,3.511c0,1.815,1.392,3.297,3.161,3.475l3.916,15.75c-1.802,0.716-3.498,1.655-5.065,2.78L9.1,25.172
	c0.386-0.564,0.611-1.243,0.611-1.974c0-1.938-1.574-3.511-3.51-3.511c-1.935,0-3.51,1.573-3.51,3.511c0,1.934,1.575,3.51,3.51,3.51
	c0.547,0,1.06-0.138,1.521-0.361l8.199,10.08c-1.894,1.593-3.542,3.488-4.88,5.634c-0.495-0.262-1.051-0.422-1.65-0.422
	c-2.007,0-3.641,1.633-3.641,3.641h0.112c-0.392,0.332-0.646,0.822-0.646,1.375v2.152c0,0.998,0.812,1.812,1.811,1.812H55.49
	c0.999,0,1.812-0.813,1.812-1.812v-2.152c0-0.742-0.45-1.381-1.092-1.658c-0.147-1.873-1.702-3.355-3.612-3.355
	c-0.457,0-0.887,0.102-1.287,0.258c-0.696-1.096-1.477-2.125-2.326-3.082l6.873-7.656C56.268,31.329,56.717,31.424,57.189,31.424z
	 M47.791,11.61c0.938,0,1.698,0.76,1.698,1.698c0,0.936-0.761,1.698-1.698,1.698s-1.698-0.763-1.698-1.698
	C46.093,12.37,46.854,11.61,47.791,11.61z M18.849,15.007c-0.937,0-1.698-0.763-1.698-1.698c0-0.939,0.762-1.698,1.698-1.698
	c0.937,0,1.698,0.76,1.698,1.698C20.547,14.244,19.785,15.007,18.849,15.007z M6.201,24.896c-0.937,0-1.698-0.763-1.698-1.698
	c0-0.938,0.762-1.7,1.698-1.7c0.938,0,1.699,0.762,1.699,1.7C7.9,24.134,7.139,24.896,6.201,24.896z M30.285,20.442
	c0-0.938,0.762-1.7,1.698-1.7c0.937,0,1.699,0.762,1.699,1.7c0,0.937-0.762,1.698-1.699,1.698
	C31.047,22.141,30.285,21.379,30.285,20.442z M9.391,43.52c0.26,0,0.497,0.07,0.718,0.174c-0.194,0.377-0.379,0.761-0.555,1.149
	H7.691C7.887,44.084,8.571,43.52,9.391,43.52z M52.6,43.52c0.819,0,1.504,0.564,1.698,1.323h-1.414
	c-0.194-0.428-0.386-0.856-0.603-1.271C52.387,43.555,52.488,43.52,52.6,43.52z M52.391,46.713c0.125,0,0.246-0.02,0.354-0.059
	h2.745l0.002,2.15H7.027v-2.15H9.89c0.081,0.035,0.166,0.059,0.254,0.059C10.144,46.713,52.385,46.713,52.391,46.713z
	 M13.093,44.843c0.194-0.759,0.88-1.323,1.699-1.323s1.504,0.564,1.699,1.323H13.093z M18.494,44.843
	c0.194-0.759,0.879-1.323,1.699-1.323c0.819,0,1.504,0.564,1.698,1.323H18.494z M23.894,44.843c0.195-0.759,0.88-1.323,1.699-1.323
	c0.82,0,1.505,0.564,1.699,1.323H23.894z M29.296,44.843c0.194-0.759,0.879-1.323,1.699-1.323c0.819,0,1.504,0.564,1.698,1.323
	H29.296z M34.697,44.843c0.193-0.759,0.879-1.323,1.697-1.323c0.82,0,1.506,0.564,1.699,1.323H34.697z M40.098,44.843
	c0.195-0.759,0.881-1.323,1.699-1.323c0.82,0,1.505,0.564,1.699,1.323H40.098z M45.499,44.843c0.194-0.759,0.879-1.323,1.699-1.323
	c0.819,0,1.504,0.564,1.698,1.323H45.499z M50.917,44.805c0.007,0.012,0.015,0.024,0.021,0.038H50.9
	C50.902,44.829,50.913,44.818,50.917,44.805z M49.713,42.689c-0.654-0.639-1.529-1.051-2.515-1.051
	c-1.076,0-2.033,0.478-2.701,1.221c-0.667-0.743-1.624-1.221-2.7-1.221s-2.033,0.478-2.699,1.221
	c-0.668-0.743-1.625-1.221-2.701-1.221s-2.033,0.478-2.701,1.221c-0.666-0.743-1.625-1.221-2.699-1.221
	c-1.076,0-2.033,0.478-2.7,1.221c-0.668-0.743-1.625-1.221-2.701-1.221c-1.075,0-2.033,0.478-2.7,1.221
	c-0.667-0.743-1.625-1.221-2.7-1.221c-1.076,0-2.033,0.478-2.701,1.221c-0.667-0.743-1.625-1.221-2.7-1.221
	c-0.523,0-1.015,0.115-1.461,0.316c4.065-5.73,10.674-9.303,17.891-9.303C38.824,32.654,45.723,36.462,49.713,42.689z
	 M57.189,26.216c0.937,0,1.697,0.762,1.697,1.698c0,0.938-0.762,1.7-1.697,1.7c-0.938,0-1.699-0.762-1.699-1.7
	C55.49,26.978,56.252,26.216,57.189,26.216z"/>
</svg>
