<?xml version="1.0" encoding="iso-8859-1"?>
<!-- Generator: Adobe Illustrator 16.0.4, SVG Export Plug-In . SVG Version: 6.00 Build 0)  -->
<!DOCTYPE svg PUBLIC "-//W3C//DTD SVG 1.1//EN" "http://www.w3.org/Graphics/SVG/1.1/DTD/svg11.dtd">
<svg version="1.1" id="Capa_1" xmlns="http://www.w3.org/2000/svg" xmlns:xlink="http://www.w3.org/1999/xlink" x="0px" y="0px"
	 width="62.5px" height="40.012px" viewBox="0 0 62.5 40.012" style="enable-background:new 0 0 62.5 40.012;" xml:space="preserve"
	>
<g>
	<path id="path4848" style="fill:#040606;" d="M61.209,0h-0.321C60.273,0,60,1.357,60,2.352v1.982c0,1.094-0.367,1.982-0.625,1.982
		S58.75,5.723,58.75,4.99s0-1.324,0-1.324c0-0.695-0.473-1.166-1.168-1.166H57.27c-0.693,0-1.02,0.469-1.02,1.166V4.99
		c0,0.732-0.395,1.26-0.586,1.26s-0.346,0-0.346,0H54.78c-0.297,0-1.03-0.84-1.03-1.953c0-1.117,0-2.021,0-2.021
		c0-1.285-1.268-1.154-5.151-1.154c-0.041,0,0.168,0.129,0.117,0.129h-8.969c-0.206,0-0.324-0.041-0.394,0.072
		C39.22,1.543,38.28,2.506,37,3.023C24.231,8.18,8.188,2.5,7.54,2.5H4.254C3.565,2.5,2.5,2.535,2.5,3.223v21.08
		C2.5,24.99,3.565,25,4.254,25c0,0,0.316,0,0.633,0c0.35,0,0.635,0.885,0.635,1.641c0,0.754-0.4,1.502-0.896,1.502
		s-0.895,0.08-0.895,0.303c0,0.225,0.399,0.305,0.895,0.305s0.896,0,0.896,0h0.101c0.056,0,0.101,0.473,0.101,0.852
		c0,0.375,0.09,0.766,0.201,0.766c0.11,0,0.2-0.264,0.2-0.641s0.045-0.662,0.101-0.662s0.101-1.055,0.101-2.031
		C6.325,26.055,6.598,25,6.933,25c0.336,0,0.608,0,0.608,0c0.687,0,1.209-0.01,1.209-0.697v-2.791c0-1.992,2.537-8.941,12.126-8.941
		c16.786-0.379,19.467,2.727,16.739,11.717c-1.771,5.363-2.781,8.133-3.364,9.898c-0.433,1.311-1.897,2.064-3.278,2.064H1.242
		C0.656,36.25,0,37.342,0,37.928v1.615C0,40.129,0.656,40,1.242,40h58.747c0.585,0,1.261,0.129,1.261-0.457v-1.615
		c0-0.584-0.676-1.678-1.261-1.678h-4.783c-1.38,0-2.501-0.811-2.504-2.191l-0.019-13.172c-0.002-1.383,0.173-2.504,0.652-2.711
		c0.42-0.182,0.414-0.314,0.414-0.535v-3.889c0-0.365,0-0.762,0-1.188v-0.227c0-0.123,0.763-0.225,1.25-0.225s1.25,0.576,1.25,1.287
		s0,1.289,0,1.289c0,0.693,0.325,1.561,1.021,1.561h0.311c0.695,0,1.169-0.867,1.169-1.561v-1.344c0-0.742,0.367-1.344,0.625-1.344
		S60,12.891,60,13.984c0,1.096,0,1.984,0,1.984c0,0.992,0.273,1.531,0.888,1.531h0.32c0.613,0,1.292-0.539,1.292-1.531V2.352
		C62.5,1.357,61.821,0,61.209,0"/>
</g>
<g>
</g>
<g>
</g>
<g>
</g>
<g>
</g>
<g>
</g>
<g>
</g>
<g>
</g>
<g>
</g>
<g>
</g>
<g>
</g>
<g>
</g>
<g>
</g>
<g>
</g>
<g>
</g>
<g>
</g>
</svg>
