<?xml version="1.0" encoding="utf-8"?>
<!-- Generator: Adobe Illustrator 17.0.1, SVG Export Plug-In . SVG Version: 6.00 Build 0)  -->
<!DOCTYPE svg PUBLIC "-//W3C//DTD SVG 1.1//EN" "http://www.w3.org/Graphics/SVG/1.1/DTD/svg11.dtd">
<svg version="1.1" id="Layer_1" xmlns="http://www.w3.org/2000/svg" xmlns:xlink="http://www.w3.org/1999/xlink" x="0px" y="0px"
	 width="450px" height="450px" viewBox="0 0 450 450" enable-background="new 0 0 450 450" xml:space="preserve">
<g>
	<rect fill="none" stroke="#000000" stroke-miterlimit="10" width="450" height="450"/>
</g>
<!-- block a -->
<polygon class="colorA" fill="#e5e5e5" stroke="#000000" stroke-miterlimit="10" points="0,0  0,150 150,0 "/>
<polygon fill="#fff" stroke="#000000" stroke-miterlimit="10" points="150,0  150,150 0,150"/>
<!-- block b -->
<rect x="150" y="0" fill="#FFFFFF" stroke="#000000" stroke-miterlimit="10" width="150" height="150"/>
<!-- block c -->
<polygon class="colorA" fill="#e5e5e5" stroke="#000000" stroke-miterlimit="10" points="450,150 300,0 450,0 "/>
<polygon fill="#fff" stroke="#000000" stroke-miterlimit="10" points="300,0 450,150 300,150 "/>
<!-- block d -->
<rect x="0" y="150" fill="#FFFFFF" stroke="#000000" stroke-miterlimit="10" width="150" height="150"/>
<!-- block e -->
<rect class="colorA" x="150" y="150" fill="#e5e5e5" stroke="#000000" stroke-miterlimit="10" width="150" height="150"/>
<!-- block f -->
<rect x="300" y="150" fill="#FFFFFF" stroke="#000000" stroke-miterlimit="10" width="150" height="150"/>
<!-- block g -->
<polygon class="colorA" fill="#e5e5e5" stroke="#000000" stroke-miterlimit="10" points="150,450 0,450 0,300 "/>
<polygon fill="#FFFFFF" stroke="#000000" stroke-miterlimit="10" points="150,450 150,300 0,300 "/>
<!-- block h -->
<rect x="150" y="300" fill="#FFFFFF" stroke="#000000" stroke-miterlimit="10" width="150" height="150"/>
<!-- block i -->
<polygon class="colorA" fill="#e5e5e5" stroke="#000000" stroke-miterlimit="10" points="450,450 300,450 450,300"/>
<polygon fill="#fff" stroke="#000000" stroke-miterlimit="10" points="300,300 450,300 300,450 "/>
</svg>