<?xml version="1.0" encoding="utf-8"?>
<!-- Generator: Adobe Illustrator 17.0.1, SVG Export Plug-In . SVG Version: 6.00 Build 0)  -->
<!DOCTYPE svg PUBLIC "-//W3C//DTD SVG 1.1//EN" "http://www.w3.org/Graphics/SVG/1.1/DTD/svg11.dtd">
<svg version="1.1" id="Layer_1" xmlns="http://www.w3.org/2000/svg" xmlns:xlink="http://www.w3.org/1999/xlink" x="0px" y="0px"
	 width="450px" height="450px" viewBox="0 0 450 450" enable-background="new 0 0 450 450" xml:space="preserve">
<g>
    <rect fill="none" stroke="#000000" stroke-miterlimit="10" width="450" height="450"/>
</g>
<!-- block a -->
<rect class="colorA" x="0" y="0" fill="#fff" stroke="#000000" stroke-miterlimit="10" width="150.093" height="149.907"/>
<!-- block b -->
<polygon class="colorB" fill="#c9c9c9" stroke="#000000" stroke-miterlimit="10" points="150,0 150,150 300,150 "/>
<polygon class="colorA" fill="#fff" stroke="#000000" stroke-miterlimit="10" points="150,0 300,0 300,150 "/>
<!-- block c -->
<rect class="colorA" x="300" y="0" fill="#fff" stroke="#000000" stroke-miterlimit="10" width="150.093" height="149.907"/>
<!-- block d -->
<polygon class="colorB" fill="#c9c9c9" stroke="#000000" stroke-miterlimit="10" points="0,300 150,150 300,300 "/>
<polygon class="colorA" fill="#fff" stroke="#000000" stroke-miterlimit="10" points="0,300 0,150 150,150 "/>
<!-- block e -->
<rect class="colorD" x="150" y="150" fill="#e5e5e5" stroke="#000000" stroke-miterlimit="10" width="150.093" height="149.907"/>
<!-- block f -->
<polygon class="colorB" fill="#c9c9c9" stroke="#000000" stroke-miterlimit="10" points="300,150 450,150 300,300 "/>
<polygon class="colorA" fill="#fff" stroke="#000000" stroke-miterlimit="10" points="450,150 300,300 450,300 "/>
<!-- block g -->
<rect class="colorA" x="0" y="300" fill="#fff" stroke="#000000" stroke-miterlimit="10" width="150.093" height="149.907"/>
<!-- block h -->
<polygon class="colorB" fill="#c9c9c9" stroke="#000000" stroke-miterlimit="10" points="150,300 300,300 300,450 "/>
<polygon class="colorA" fill="#fff" stroke="#000000" stroke-miterlimit="10" points="150,300 150,450 300,450 "/>
<!-- block i -->
<rect class="colorA" x="300" y="300" fill="#fff" stroke="#000000" stroke-miterlimit="10" width="150.093" height="149.907"/>
</svg>

