<svg width="64" xmlns="http://www.w3.org/2000/svg" height="64" viewBox="0 0 64 64" xmlns:xlink="http://www.w3.org/1999/xlink" enable-background="new 0 0 64 64">
<path d="m44.586,10.301c.003-.018 .005-.035 .005-.055v-6.44c0-1.066-.867-1.934-1.933-1.934h-21.014c-1.065,0-1.933,.867-1.933,1.934v6.44c0,.019 .002,.037 .005,.055 .004,.027-.453,.047-.972,.236-1.14,.416-1.955,1.494-1.955,2.76v36.363c0,1.262 .811,2.338 1.946,2.756 .519,.191 .977,.635 .977,1.188-.001,1.814-.001,5.465-.001,5.465 0,1.064 .867,1.932 1.933,1.932h21.014c1.065,0 1.933-.867 1.933-1.932v-5.441c0-.553 .46-1.002 .977-1.199 1.135-.43 1.945-1.506 1.945-2.768v-36.364c0-1.266-.815-2.344-1.955-2.76-.519-.189-.976-.209-.972-.236zm-4.432,40.31h-1.499c-.553,0-.73-.357-.416-.812 .952-1.375 2.018-3.186 2.616-5.082 .166-.525 .592-.885 1-.789 .409,.096 .752,.617 .718,1.168-.117,1.85-.612,3.492-1.033,4.592-.197,.517-.833,.923-1.386,.923zm-20.649-31.945l5.746-5.621c.394-.385 1.162-.699 1.715-.699h.565c.553,0 .738,.363 .403,.803-2.839,3.715-6.181,6.766-8.37,8.588-.424,.354-.773,.186-.773-.367v-1.004c-.001-.554 .319-1.315 .714-1.7zm26.008,2.533v.895c0,.553-.426,.857-.929,.629-2.353-1.066-4.424-2.961-5.632-4.217-.383-.396-.453-1.121-.188-1.605 .101-.182 .201-.367 .3-.553 .26-.486 .75-.543 1.131-.143 .997,1.047 2.459,2.332 4.444,3.504 .476,.281 .874,.937 .874,1.49zm-26.723,10.973v-.801c0-.553 .391-1.217 .863-1.502 3.249-1.955 11.317-7.486 16.083-16.631 .256-.49 .896-.893 1.449-.893h.607c.553,0 .819,.41 .584,.91-5.639,11.985-14.564,17.491-18.679,19.495-.497,.242-.907-.025-.907-.578zm26.723-.631v.928c0,.553-.441,.922-.98,.801-5.75-1.291-9.927-4.439-11.955-6.264-.411-.369-.417-1.006-.044-1.412 .295-.322 .589-.652 .883-.992 .361-.418 .954-.438 1.355-.059 1.772,1.678 5.056,4.232 9.781,5.717 .526,.166 .96,.728 .96,1.281zm-14.37-3.119c2.216,2.027 6.853,5.553 13.387,6.893 .541,.111 .983,.629 .983,1.182v.691c0,.553-.443,.938-.987,.844-8.277-1.436-13.501-5.42-15.76-7.527-.403-.377-.366-.981 .054-1.338 .286-.244 .574-.496 .863-.758 .411-.37 1.052-.36 1.46,.013zm-11.558-4.121c2.229-1.746 7.074-5.844 10.811-11.131 .319-.451 1.014-.824 1.566-.824h.983c.553,0 .794,.396 .522,.879-4.098,7.266-10.453,12.08-13.835,14.281-.463,.303-.844,.088-.844-.465v-1.133c.002-.553 .361-1.267 .797-1.607zm.129,10.666c.507-.223 1.118-.51 1.812-.869 .49-.254 1.121-.094 1.462,.34 .134,.17 .282,.35 .447,.537 .364,.414 .344,1.018-.111,1.33-1.079,.746-2.432,1.438-3.617,1.977-.503,.229-.917-.047-.917-.6v-1.33c0-.553 .418-1.163 .924-1.385zm.002,5.494c1.427-.607 3.533-1.607 5.134-2.799 .443-.33 1.124-.354 1.571-.029 .089,.064 .179,.129 .271,.191 .452,.318 .528,.891 .133,1.275-2.504,2.438-5.25,3.717-7.082,4.357-.521,.182-.952-.145-.952-.697v-.918c-.001-.552 .416-1.163 .925-1.38zm.038,5.107c2.097-.646 5.663-2.149 8.838-5.416 .385-.396 1.071-.516 1.564-.268 .202,.104 .41,.205 .622,.307 .498,.24 .666,.803 .33,1.24-3.015,3.945-8.486,6.486-11.382,7.619-.515,.201-.937-.096-.937-.648v-1.566c.001-.553 .438-1.104 .965-1.268zm14.731-3.806c.09,.033 .181,.066 .272,.1 .52,.186 .751,.734 .472,1.211-2.057,3.51-5.65,5.977-7.424,7.043-.474,.283-1.316,.496-1.869,.496h-3.702c-.553,0-.585-.17-.079-.393 3.336-1.469 8.081-4.092 10.846-7.977 .319-.451 .966-.67 1.484-.48zm-2.976,8.256c1.942-1.488 4.181-3.617 5.655-6.315 .265-.484 .799-.789 1.232-.664 .433,.125 .695,.66 .524,1.184-.72,2.207-2.22,4.363-3.19,5.611-.339,.436-1.076,.777-1.629,.777h-2.397c-.553,0-.634-.257-.195-.593zm-6.533-17.957c.217-.145 .437-.293 .66-.447 .453-.315 1.118-.252 1.515,.133 2.348,2.281 8.035,6.797 17.372,8.316 .546,.088 .99,.594 .99,1.146v.434c0,.553-.44,.918-.982,.81-12.814-2.559-17.914-6.799-19.795-9.051-.354-.423-.22-1.037 .24-1.341zm10.932-10.618c.245-.344 .489-.693 .73-1.051 .309-.457 .851-.504 1.242-.113 1.5,1.504 3.911,3.564 6.682,4.6 .518,.193 .95,.756 .95,1.309v1.281c0,.553-.43,.875-.952,.693-4.141-1.432-7.03-3.758-8.54-5.203-.398-.383-.433-1.068-.112-1.516zm9.605-4.541c0,.553-.384,.771-.842,.463-1.666-1.127-2.833-2.293-3.555-3.131-.36-.418-.514-1.025-.383-1.332 .131-.307 .683-.557 1.235-.557h2.544c.552,0 1,.426 1,.951v3.606zm-22.868-13.095h19.014c.553-0 1,.447 1,1l.002,4.44c0,.553-.447,1-1,1h-19.016c-.553,0-1-.447-1-1v-4.44c0-.553 .448-1 1-1zm-.539,8.539c.553,0 .68,.314 .285,.699l-2.886,2.822c-.395,.387-.715,.252-.715-.301v-2.269c0-.525 .448-.951 1-.951h2.316zm-.461,45.722v-4.441c0-.553 .447-1 1-1h19.014c.553,0 1,.447 1,1l.002,4.441c0,.553-.447,1-1,1h-19.016c-.552,0-1-.447-1-1zm22.278-7.457c-.326,0-.424-.416-.248-.939 .377-1.121 .742-2.561 .871-4.166 .044-.551 .254-.959 .508-.912 .255,.045 .46,.529 .46,1.082v3.984c0,.525-.448,.951-1,.951-0-0-.265-0-.591-0z"/>
</svg>
