<?xml version="1.0" encoding="iso-8859-1"?>
<!-- Generator: Adobe Illustrator 17.0.0, SVG Export Plug-In . SVG Version: 6.00 Build 0)  -->
<!DOCTYPE svg PUBLIC "-//W3C//DTD SVG 1.1//EN" "http://www.w3.org/Graphics/SVG/1.1/DTD/svg11.dtd">
<svg version="1.1" id="Capa_1" xmlns="http://www.w3.org/2000/svg" xmlns:xlink="http://www.w3.org/1999/xlink" x="0px" y="0px"
	 width="64px" height="64px" viewBox="0 0 64 64" style="enable-background:new 0 0 64 64;" xml:space="preserve">
<g>
	<path d="M49.925,46.883c-0.173-1.09-1.197-1.829-2.291-1.681c-2.964,0.4-8.898,1.062-15.297,0.99v-0.006
		c-0.091,0.002-0.181,0.002-0.272,0.003c-0.091-0.001-0.181-0.001-0.273-0.003v0.006c-6.399,0.072-12.333-0.59-15.297-0.99
		c-1.094-0.148-2.118,0.591-2.291,1.681l-0.371,2.326c-0.173,1.091,0.518,2.304,1.566,2.649c8.084,2.667,25.247,2.667,33.331,0
		c1.048-0.346,1.739-1.559,1.566-2.649L49.925,46.883z"/>
	<path d="M17.745,35.989c-0.189,0-0.365-0.046-0.525-0.122l-1.239,8.312c0.104,0.003,0.206-0.002,0.312,0.012
		c0.219,0.029,0.461,0.062,0.714,0.095c-0.03-0.106-0.051-0.215-0.051-0.33c0-0.677,0.549-1.227,1.227-1.227
		c0.678,0,1.227,0.55,1.227,1.227c0,0.218-0.062,0.419-0.161,0.596c1.983,0.217,4.451,0.435,7.172,0.55
		c-0.1-0.178-0.161-0.38-0.161-0.597c0-0.678,0.549-1.228,1.227-1.228c0.677,0,1.227,0.55,1.227,1.228
		c0,0.243-0.073,0.47-0.196,0.661c0.761,0.015,1.535,0.021,2.317,0.015v-0.014l0.948,0.006l0.93-0.012v0.02
		c0.1,0.001,0.2,0.001,0.3,0.001c0.907,0,1.799-0.016,2.674-0.04c-0.114-0.187-0.183-0.403-0.183-0.637
		c0-0.678,0.549-1.228,1.227-1.228c0.677,0,1.227,0.55,1.227,1.228c0,0.2-0.053,0.386-0.138,0.553
		c2.598-0.129,4.945-0.34,6.816-0.546c-0.086-0.167-0.139-0.354-0.139-0.556c0-0.677,0.549-1.227,1.227-1.227
		c0.678,0,1.227,0.55,1.227,1.227c0,0.097-0.014,0.19-0.036,0.28c0.115-0.015,0.234-0.03,0.34-0.045
		c0.31-0.042,0.608-0.02,0.895,0.036l-0.969-7.429c-0.075,0.015-0.152,0.023-0.231,0.023c-0.677,0-1.227-0.55-1.227-1.227
		c0-0.648,0.504-1.174,1.142-1.219l-0.922-7.069c-0.072,0.013-0.144,0.022-0.22,0.022c-0.677,0-1.227-0.55-1.227-1.227
		c0-0.643,0.498-1.167,1.13-1.217l-1.492-11.44c-0.238-1.824-1.922-3.303-3.762-3.303H24.385c-1.839,0-3.551,1.475-3.822,3.294
		l-1.727,11.588c0.172-0.092,0.365-0.148,0.574-0.148c0.678,0,1.227,0.55,1.227,1.227c0,0.677-0.549,1.227-1.227,1.227
		c-0.337,0-0.643-0.137-0.864-0.356l-0.981,6.581c0.059-0.009,0.118-0.019,0.18-0.019c0.677,0,1.227,0.55,1.227,1.228
		C18.971,35.44,18.422,35.989,17.745,35.989z M41.642,41.235c-0.678,0-1.227-0.55-1.227-1.228c0-0.677,0.549-1.227,1.227-1.227
		c0.678,0,1.227,0.55,1.227,1.227C42.869,40.685,42.32,41.235,41.642,41.235z M41.642,32.159c-0.678,0-1.227-0.55-1.227-1.228
		c0-0.677,0.549-1.227,1.227-1.227c0.678,0,1.227,0.55,1.227,1.227C42.869,31.609,42.32,32.159,41.642,32.159z M42.869,21.772
		c0,0.678-0.549,1.228-1.227,1.228c-0.678,0-1.227-0.55-1.227-1.228c0-0.677,0.549-1.227,1.227-1.227
		C42.32,20.546,42.869,21.096,42.869,21.772z M40.416,11.387c0.678,0,1.227,0.55,1.227,1.227c0,0.677-0.549,1.227-1.227,1.227
		c-0.678,0-1.227-0.55-1.227-1.227C39.189,11.936,39.738,11.387,40.416,11.387z M38.727,35.262c0,0.678-0.549,1.228-1.227,1.228
		c-0.677,0-1.227-0.55-1.227-1.228c0-0.677,0.549-1.227,1.227-1.227C38.179,34.035,38.727,34.585,38.727,35.262z M36.729,15.8
		c0.677,0,1.227,0.55,1.227,1.227c0,0.678-0.549,1.227-1.227,1.227c-0.678,0-1.227-0.549-1.227-1.227
		C35.503,16.35,36.052,15.8,36.729,15.8z M36.729,25.209c0.677,0,1.227,0.55,1.227,1.227c0,0.677-0.549,1.227-1.227,1.227
		c-0.678,0-1.227-0.55-1.227-1.227C35.503,25.759,36.052,25.209,36.729,25.209z M32.065,41.235c-0.678,0-1.227-0.55-1.227-1.228
		c0-0.677,0.549-1.227,1.227-1.227c0.678,0,1.227,0.55,1.227,1.227C33.291,40.685,32.742,41.235,32.065,41.235z M33.815,30.767
		c0,0.677-0.549,1.227-1.227,1.227c-0.677,0-1.227-0.55-1.227-1.227c0-0.678,0.549-1.228,1.227-1.228
		C33.266,29.539,33.815,30.089,33.815,30.767z M33.291,21.772c0,0.678-0.549,1.228-1.227,1.228c-0.678,0-1.227-0.55-1.227-1.228
		c0-0.677,0.549-1.227,1.227-1.227C32.742,20.546,33.291,21.096,33.291,21.772z M31.65,11.387c0.678,0,1.227,0.55,1.227,1.227
		c0,0.677-0.549,1.227-1.227,1.227c-0.677,0-1.227-0.55-1.227-1.227C30.423,11.936,30.973,11.387,31.65,11.387z M28.011,36.822
		c-0.678,0-1.227-0.55-1.227-1.227c0-0.678,0.549-1.227,1.227-1.227c0.677,0,1.227,0.549,1.227,1.227
		C29.237,36.272,28.688,36.822,28.011,36.822z M29.15,26.102c0,0.677-0.549,1.227-1.227,1.227c-0.677,0-1.227-0.55-1.227-1.227
		c0-0.677,0.549-1.227,1.227-1.227C28.601,24.876,29.15,25.426,29.15,26.102z M27.487,15.8c0.677,0,1.227,0.55,1.227,1.227
		c0,0.678-0.549,1.227-1.227,1.227c-0.678,0-1.227-0.549-1.227-1.227C26.26,16.35,26.809,15.8,27.487,15.8z M23.346,11.72
		c0.678,0,1.227,0.55,1.227,1.227c0,0.678-0.549,1.227-1.227,1.227c-0.677,0-1.227-0.549-1.227-1.227
		C22.119,12.269,22.669,11.72,23.346,11.72z M23.346,20.13c0.678,0,1.227,0.549,1.227,1.227c0,0.677-0.549,1.227-1.227,1.227
		c-0.677,0-1.227-0.55-1.227-1.227C22.119,20.679,22.669,20.13,23.346,20.13z M23.346,29.705c0.678,0,1.227,0.55,1.227,1.227
		c0,0.678-0.549,1.228-1.227,1.228c-0.677,0-1.227-0.55-1.227-1.228C22.119,30.255,22.669,29.705,23.346,29.705z M23.346,38.448
		c0.678,0,1.227,0.55,1.227,1.227c0,0.678-0.549,1.227-1.227,1.227c-0.677,0-1.227-0.55-1.227-1.227
		C22.119,38.998,22.669,38.448,23.346,38.448z"/>
</g>
</svg>
